{
	"asset":{
		"generator":"Khronos glTF Blender I/O v4.3.47",
		"version":"2.0"
	},
	"extensionsUsed":[
		"KHR_materials_transmission",
		"KHR_materials_specular"
	],
	"scene":0,
	"scenes":[
		{
			"name":"Scene",
			"nodes":[
				0
			]
		}
	],
	"nodes":[
		{
			"mesh":0,
			"name":"14077_WWII_Tank_Germany_Panzer_III_v1_L2",
			"rotation":[
				0,
				0.7071068286895752,
				0,
				0.7071068286895752
			],
			"translation":[
				0,
				-0.7999998927116394,
				0
			]
		}
	],
	"materials":[
		{
			"doubleSided":true,
			"extensions":{
				"KHR_materials_transmission":{
					"transmissionFactor":1
				},
				"KHR_materials_specular":{
					"specularFactor":0
				}
			},
			"name":"03___14077_WWII_Tank_Germany_Panzer_III_turret",
			"pbrMetallicRoughness":{
				"baseColorTexture":{
					"index":0
				},
				"metallicFactor":0,
				"roughnessFactor":0.8129171133041382
			}
		},
		{
			"doubleSided":true,
			"extensions":{
				"KHR_materials_transmission":{
					"transmissionFactor":1
				},
				"KHR_materials_specular":{
					"specularFactor":0
				}
			},
			"name":"02___14077_WWII_Tank_Germany_Panzer_III_hull",
			"pbrMetallicRoughness":{
				"baseColorTexture":{
					"index":1
				},
				"metallicFactor":0,
				"roughnessFactor":0.8129171133041382
			}
		},
		{
			"doubleSided":true,
			"extensions":{
				"KHR_materials_transmission":{
					"transmissionFactor":1
				},
				"KHR_materials_specular":{
					"specularFactor":0
				}
			},
			"name":"01___14077_WWII_Tank_Germany_Panzer_III_tracks",
			"pbrMetallicRoughness":{
				"baseColorTexture":{
					"index":2
				},
				"metallicFactor":0,
				"roughnessFactor":0.8129171133041382
			}
		}
	],
	"meshes":[
		{
			"name":"14077_WWII_Tank_Germany_Panzer_III_v1_L2",
			"primitives":[
				{
					"attributes":{
						"POSITION":0,
						"NORMAL":1,
						"TEXCOORD_0":2
					},
					"indices":3,
					"material":0
				},
				{
					"attributes":{
						"POSITION":4,
						"NORMAL":5,
						"TEXCOORD_0":6
					},
					"indices":7,
					"material":1
				},
				{
					"attributes":{
						"POSITION":8,
						"NORMAL":9,
						"TEXCOORD_0":10
					},
					"indices":11,
					"material":2
				}
			]
		}
	],
	"textures":[
		{
			"sampler":0,
			"source":0
		},
		{
			"sampler":0,
			"source":1
		},
		{
			"sampler":0,
			"source":2
		}
	],
	"images":[
		{
			"mimeType":"image/jpeg",
			"name":"14077_WWII_Tank_Germany_Panzer_III_turret_diff",
			"uri":"14077_WWII_Tank_Germany_Panzer_III_turret_diff.jpg"
		},
		{
			"mimeType":"image/jpeg",
			"name":"14077_WWII_Tank_Germany_Panzer_III_hull_diff",
			"uri":"14077_WWII_Tank_Germany_Panzer_III_hull_diff.jpg"
		},
		{
			"mimeType":"image/jpeg",
			"name":"14077_WWII_Tank_Germany_Panzer_III_tracks_diff",
			"uri":"14077_WWII_Tank_Germany_Panzer_III_tracks_diff.jpg"
		}
	],
	"accessors":[
		{
			"bufferView":0,
			"componentType":5126,
			"count":13720,
			"max":[
				0.7541999816894531,
				2.3092000484466553,
				0.5519999861717224
			],
			"min":[
				-1.604699969291687,
				1.7301000356674194,
				-0.5523999929428101
			],
			"type":"VEC3"
		},
		{
			"bufferView":1,
			"componentType":5126,
			"count":13720,
			"type":"VEC3"
		},
		{
			"bufferView":2,
			"componentType":5126,
			"count":13720,
			"type":"VEC2"
		},
		{
			"bufferView":3,
			"componentType":5123,
			"count":73020,
			"type":"SCALAR"
		},
		{
			"bufferView":4,
			"componentType":5126,
			"count":27528,
			"max":[
				1.5413000583648682,
				1.7864999771118164,
				0.8687000274658203
			],
			"min":[
				-1.6461000442504883,
				1.0187000036239624,
				-0.8687999844551086
			],
			"type":"VEC3"
		},
		{
			"bufferView":5,
			"componentType":5126,
			"count":27528,
			"type":"VEC3"
		},
		{
			"bufferView":6,
			"componentType":5126,
			"count":27528,
			"type":"VEC2"
		},
		{
			"bufferView":7,
			"componentType":5123,
			"count":145008,
			"type":"SCALAR"
		},
		{
			"bufferView":8,
			"componentType":5126,
			"count":43718,
			"max":[
				1.4515000581741333,
				1.5217000246047974,
				0.8370000123977661
			],
			"min":[
				-1.5951999425888062,
				0.7990000247955322,
				-0.8371000289916992
			],
			"type":"VEC3"
		},
		{
			"bufferView":9,
			"componentType":5126,
			"count":43718,
			"type":"VEC3"
		},
		{
			"bufferView":10,
			"componentType":5126,
			"count":43718,
			"type":"VEC2"
		},
		{
			"bufferView":11,
			"componentType":5123,
			"count":234720,
			"type":"SCALAR"
		}
	],
	"bufferViews":[
		{
			"buffer":0,
			"byteLength":164640,
			"byteOffset":0,
			"target":34962
		},
		{
			"buffer":0,
			"byteLength":164640,
			"byteOffset":164640,
			"target":34962
		},
		{
			"buffer":0,
			"byteLength":109760,
			"byteOffset":329280,
			"target":34962
		},
		{
			"buffer":0,
			"byteLength":146040,
			"byteOffset":439040,
			"target":34963
		},
		{
			"buffer":0,
			"byteLength":330336,
			"byteOffset":585080,
			"target":34962
		},
		{
			"buffer":0,
			"byteLength":330336,
			"byteOffset":915416,
			"target":34962
		},
		{
			"buffer":0,
			"byteLength":220224,
			"byteOffset":1245752,
			"target":34962
		},
		{
			"buffer":0,
			"byteLength":290016,
			"byteOffset":1465976,
			"target":34963
		},
		{
			"buffer":0,
			"byteLength":524616,
			"byteOffset":1755992,
			"target":34962
		},
		{
			"buffer":0,
			"byteLength":524616,
			"byteOffset":2280608,
			"target":34962
		},
		{
			"buffer":0,
			"byteLength":349744,
			"byteOffset":2805224,
			"target":34962
		},
		{
			"buffer":0,
			"byteLength":469440,
			"byteOffset":3154968,
			"target":34963
		}
	],
	"samplers":[
		{
			"magFilter":9729,
			"minFilter":9987
		}
	],
	"buffers":[
		{
			"byteLength":3624408,
			"uri":"tankv002.bin"
		}
	]
}
