{
	"asset":{
		"generator":"Khronos glTF Blender I/O v4.3.47",
		"version":"2.0"
	},
	"scene":0,
	"scenes":[
		{
			"name":"Scene",
			"nodes":[
				10
			]
		}
	],
	"nodes":[
		{
			"mesh":0,
			"name":"0_0_Body001_BODY_0"
		},
		{
			"children":[
				0
			],
			"name":"0_0_Body001",
			"rotation":[
				-0.7071068286895752,
				0,
				0,
				0.7071068286895752
			],
			"scale":[
				2.5399999618530273,
				2.5399997234344482,
				2.5399997234344482
			],
			"translation":[
				0.5322685241699219,
				0,
				-49.690433502197266
			]
		},
		{
			"mesh":1,
			"name":"Rels_RELS_0",
			"translation":[
				0,
				2.1101498077769065e-06,
				0
			]
		},
		{
			"children":[
				2
			],
			"name":"Rels",
			"rotation":[
				-0.7071068286895752,
				0,
				0,
				0.7071068286895752
			],
			"scale":[
				2.5399999618530273,
				2.5399997234344482,
				2.5399997234344482
			],
			"translation":[
				-123.1471176147461,
				46.50059127807617,
				54.68701934814453
			]
		},
		{
			"mesh":2,
			"name":"Rels001_RELS_0",
			"translation":[
				1.2410286217345856e-05,
				-7.063474640744971e-06,
				0
			]
		},
		{
			"children":[
				4
			],
			"name":"Rels001",
			"rotation":[
				-0.70710688829422,
				0,
				0,
				0.7071066498756409
			],
			"translation":[
				121.5745620727539,
				46.500606536865234,
				54.687015533447266
			]
		},
		{
			"mesh":3,
			"name":"tower002_TOWER_0"
		},
		{
			"children":[
				6
			],
			"name":"tower002",
			"rotation":[
				-0.7071068286895752,
				0,
				0,
				0.7071068286895752
			],
			"scale":[
				2.5399999618530273,
				2.5399997234344482,
				2.5399997234344482
			],
			"translation":[
				0.5322685241699219,
				0,
				-49.690433502197266
			]
		},
		{
			"children":[
				1,
				3,
				5,
				7
			],
			"name":"RootNode",
			"rotation":[
				0,
				1,
				0,
				4.371138828673793e-08
			]
		},
		{
			"children":[
				8
			],
			"name":"f37033fb3739453a947e7775c35edc70.fbx",
			"rotation":[
				0.70710688829422,
				0,
				0,
				0.7071066498756409
			]
		},
		{
			"children":[
				9
			],
			"name":"Sketchfab_model",
			"rotation":[
				-0.70710688829422,
				0,
				0,
				0.7071066498756409
			],
			"scale":[
				0.008480215445160866,
				0.00848021637648344,
				0.00848021637648344
			]
		}
	],
	"materials":[
		{
			"doubleSided":true,
			"name":"BODY",
			"normalTexture":{
				"index":0
			},
			"occlusionTexture":{
				"index":1
			},
			"pbrMetallicRoughness":{
				"baseColorTexture":{
					"index":2
				},
				"metallicRoughnessTexture":{
					"index":1
				}
			}
		},
		{
			"doubleSided":true,
			"name":"RELS",
			"normalTexture":{
				"index":3
			},
			"occlusionTexture":{
				"index":4,
				"strength":0.816507875919342
			},
			"pbrMetallicRoughness":{
				"baseColorTexture":{
					"index":5
				},
				"metallicRoughnessTexture":{
					"index":4
				}
			}
		},
		{
			"doubleSided":true,
			"name":"TOWER",
			"normalTexture":{
				"index":6
			},
			"occlusionTexture":{
				"index":7
			},
			"pbrMetallicRoughness":{
				"baseColorTexture":{
					"index":8
				},
				"metallicRoughnessTexture":{
					"index":7
				}
			}
		}
	],
	"meshes":[
		{
			"name":"0_0_Body001_BODY_0",
			"primitives":[
				{
					"attributes":{
						"POSITION":0,
						"NORMAL":1,
						"TEXCOORD_0":2
					},
					"indices":3,
					"material":0
				}
			]
		},
		{
			"name":"Rels_RELS_0",
			"primitives":[
				{
					"attributes":{
						"POSITION":4,
						"NORMAL":5,
						"TEXCOORD_0":6
					},
					"indices":7,
					"material":1
				}
			]
		},
		{
			"name":"Rels001_RELS_0",
			"primitives":[
				{
					"attributes":{
						"POSITION":8,
						"NORMAL":9,
						"TEXCOORD_0":10
					},
					"indices":11,
					"material":1
				}
			]
		},
		{
			"name":"tower002_TOWER_0",
			"primitives":[
				{
					"attributes":{
						"POSITION":12,
						"NORMAL":13,
						"TEXCOORD_0":14
					},
					"indices":15,
					"material":2
				}
			]
		}
	],
	"textures":[
		{
			"sampler":0,
			"source":0
		},
		{
			"sampler":0,
			"source":1
		},
		{
			"sampler":0,
			"source":2
		},
		{
			"sampler":0,
			"source":3
		},
		{
			"sampler":0,
			"source":4
		},
		{
			"sampler":0,
			"source":5
		},
		{
			"sampler":0,
			"source":6
		},
		{
			"sampler":0,
			"source":7
		},
		{
			"sampler":0,
			"source":8
		}
	],
	"images":[
		{
			"mimeType":"image/png",
			"name":"Image_8",
			"uri":"Image_8.png"
		},
		{
			"mimeType":"image/png",
			"name":"Image_7",
			"uri":"Image_7.png"
		},
		{
			"mimeType":"image/png",
			"name":"Image_6",
			"uri":"Image_6.png"
		},
		{
			"mimeType":"image/png",
			"name":"Image_2",
			"uri":"Image_2.png"
		},
		{
			"mimeType":"image/png",
			"name":"Image_1",
			"uri":"Image_1.png"
		},
		{
			"mimeType":"image/png",
			"name":"Image_0",
			"uri":"Image_0.png"
		},
		{
			"mimeType":"image/png",
			"name":"Image_5",
			"uri":"Image_5.png"
		},
		{
			"mimeType":"image/png",
			"name":"Image_4",
			"uri":"Image_4.png"
		},
		{
			"mimeType":"image/png",
			"name":"Image_3",
			"uri":"Image_3.png"
		}
	],
	"accessors":[
		{
			"bufferView":0,
			"componentType":5126,
			"count":13368,
			"max":[
				56.75482940673828,
				77.21830749511719,
				66.23577117919922
			],
			"min":[
				-57.6491584777832,
				-150.48341369628906,
				12.791020393371582
			],
			"type":"VEC3"
		},
		{
			"bufferView":1,
			"componentType":5126,
			"count":13368,
			"type":"VEC3"
		},
		{
			"bufferView":2,
			"componentType":5126,
			"count":13368,
			"type":"VEC2"
		},
		{
			"bufferView":3,
			"componentType":5123,
			"count":53919,
			"type":"SCALAR"
		},
		{
			"bufferView":4,
			"componentType":5126,
			"count":9697,
			"max":[
				9.687423706054688,
				109.39535522460938,
				17.20855712890625
			],
			"min":[
				-9.687405586242676,
				-109.39535522460938,
				-17.208547592163086
			],
			"type":"VEC3"
		},
		{
			"bufferView":5,
			"componentType":5126,
			"count":9697,
			"type":"VEC3"
		},
		{
			"bufferView":6,
			"componentType":5126,
			"count":9697,
			"type":"VEC2"
		},
		{
			"bufferView":7,
			"componentType":5123,
			"count":12726,
			"type":"SCALAR"
		},
		{
			"bufferView":8,
			"componentType":5126,
			"count":4135,
			"max":[
				24.606048583984375,
				277.86419677734375,
				43.709720611572266
			],
			"min":[
				-24.606033325195312,
				-277.86419677734375,
				-43.70972442626953
			],
			"type":"VEC3"
		},
		{
			"bufferView":9,
			"componentType":5126,
			"count":4135,
			"type":"VEC3"
		},
		{
			"bufferView":10,
			"componentType":5126,
			"count":4135,
			"type":"VEC2"
		},
		{
			"bufferView":11,
			"componentType":5123,
			"count":12726,
			"type":"SCALAR"
		},
		{
			"bufferView":12,
			"componentType":5126,
			"count":5292,
			"max":[
				37.98537063598633,
				152.47561645507812,
				102.23008728027344
			],
			"min":[
				-36.7340087890625,
				-74.46804809570312,
				60.39802169799805
			],
			"type":"VEC3"
		},
		{
			"bufferView":13,
			"componentType":5126,
			"count":5292,
			"type":"VEC3"
		},
		{
			"bufferView":14,
			"componentType":5126,
			"count":5292,
			"type":"VEC2"
		},
		{
			"bufferView":15,
			"componentType":5123,
			"count":24576,
			"type":"SCALAR"
		}
	],
	"bufferViews":[
		{
			"buffer":0,
			"byteLength":160416,
			"byteOffset":0,
			"target":34962
		},
		{
			"buffer":0,
			"byteLength":160416,
			"byteOffset":160416,
			"target":34962
		},
		{
			"buffer":0,
			"byteLength":106944,
			"byteOffset":320832,
			"target":34962
		},
		{
			"buffer":0,
			"byteLength":107838,
			"byteOffset":427776,
			"target":34963
		},
		{
			"buffer":0,
			"byteLength":116364,
			"byteOffset":535616,
			"target":34962
		},
		{
			"buffer":0,
			"byteLength":116364,
			"byteOffset":651980,
			"target":34962
		},
		{
			"buffer":0,
			"byteLength":77576,
			"byteOffset":768344,
			"target":34962
		},
		{
			"buffer":0,
			"byteLength":25452,
			"byteOffset":845920,
			"target":34963
		},
		{
			"buffer":0,
			"byteLength":49620,
			"byteOffset":871372,
			"target":34962
		},
		{
			"buffer":0,
			"byteLength":49620,
			"byteOffset":920992,
			"target":34962
		},
		{
			"buffer":0,
			"byteLength":33080,
			"byteOffset":970612,
			"target":34962
		},
		{
			"buffer":0,
			"byteLength":25452,
			"byteOffset":1003692,
			"target":34963
		},
		{
			"buffer":0,
			"byteLength":63504,
			"byteOffset":1029144,
			"target":34962
		},
		{
			"buffer":0,
			"byteLength":63504,
			"byteOffset":1092648,
			"target":34962
		},
		{
			"buffer":0,
			"byteLength":42336,
			"byteOffset":1156152,
			"target":34962
		},
		{
			"buffer":0,
			"byteLength":49152,
			"byteOffset":1198488,
			"target":34963
		}
	],
	"samplers":[
		{
			"magFilter":9729,
			"minFilter":9987
		}
	],
	"buffers":[
		{
			"byteLength":1247640,
			"uri":"tankv006.bin"
		}
	]
}
