{
	"asset":{
		"generator":"Khronos glTF Blender I/O v4.3.47",
		"version":"2.0"
	},
	"scene":0,
	"scenes":[
		{
			"name":"Scene",
			"nodes":[
				11
			]
		}
	],
	"nodes":[
		{
			"mesh":0,
			"name":"Object_10"
		},
		{
			"mesh":1,
			"name":"Object_11"
		},
		{
			"mesh":2,
			"name":"Object_12"
		},
		{
			"mesh":3,
			"name":"Object_3"
		},
		{
			"mesh":4,
			"name":"Object_4"
		},
		{
			"mesh":5,
			"name":"Object_5"
		},
		{
			"mesh":6,
			"name":"Object_6"
		},
		{
			"mesh":7,
			"name":"Object_7"
		},
		{
			"mesh":8,
			"name":"Object_8"
		},
		{
			"mesh":9,
			"name":"Object_9"
		},
		{
			"children":[
				0,
				1,
				2,
				3,
				4,
				5,
				6,
				7,
				8,
				9
			],
			"name":"MDTank_type2_export.obj.cleaner.materialmerger.gles",
			"rotation":[
				0,
				0,
				-0.7071068286895752,
				0.7071068286895752
			]
		},
		{
			"children":[
				10
			],
			"name":"Sketchfab_model",
			"rotation":[
				-0.70710688829422,
				0,
				0,
				0.7071066498756409
			]
		}
	],
	"materials":[
		{
			"doubleSided":true,
			"name":"tank_tracks",
			"pbrMetallicRoughness":{
				"baseColorFactor":[
					0.06358280777931213,
					0.06358280777931213,
					0.06358280777931213,
					1
				],
				"roughnessFactor":0.5118997097015381
			}
		},
		{
			"doubleSided":true,
			"name":"tank_metaal_donker",
			"pbrMetallicRoughness":{
				"baseColorFactor":[
					0.017386000603437424,
					0.017386000603437424,
					0.017386000603437424,
					1
				],
				"metallicFactor":0,
				"roughnessFactor":0.9428576231002808
			}
		},
		{
			"doubleSided":true,
			"name":"tank_camo",
			"pbrMetallicRoughness":{
				"baseColorTexture":{
					"index":0
				},
				"metallicFactor":0,
				"roughnessFactor":0.46935635805130005
			}
		},
		{
			"doubleSided":true,
			"name":"tank_donker",
			"pbrMetallicRoughness":{
				"baseColorFactor":[
					0,
					0,
					0,
					1
				],
				"metallicFactor":0,
				"roughnessFactor":0.7671599388122559
			}
		},
		{
			"doubleSided":true,
			"name":"tank_loop",
			"pbrMetallicRoughness":{
				"baseColorFactor":[
					0.20675620436668396,
					0.20675620436668396,
					0.20675620436668396,
					1
				],
				"roughnessFactor":0.4328906238079071
			}
		},
		{
			"doubleSided":true,
			"name":"tank_metaal",
			"pbrMetallicRoughness":{
				"baseColorFactor":[
					0.08093104511499405,
					0.08093104511499405,
					0.08093104511499405,
					1
				],
				"roughnessFactor":0.8917131423950195
			}
		}
	],
	"meshes":[
		{
			"name":"Object_8",
			"primitives":[
				{
					"attributes":{
						"POSITION":0,
						"NORMAL":1,
						"TEXCOORD_0":2
					},
					"indices":3,
					"material":0
				}
			]
		},
		{
			"name":"Object_9",
			"primitives":[
				{
					"attributes":{
						"POSITION":4,
						"NORMAL":5,
						"TEXCOORD_0":6
					},
					"indices":7,
					"material":0
				}
			]
		},
		{
			"name":"Object_10",
			"primitives":[
				{
					"attributes":{
						"POSITION":8,
						"NORMAL":9,
						"TEXCOORD_0":10
					},
					"indices":11,
					"material":0
				}
			]
		},
		{
			"name":"Object_1",
			"primitives":[
				{
					"attributes":{
						"POSITION":12,
						"NORMAL":13
					},
					"indices":14,
					"material":1
				}
			]
		},
		{
			"name":"Object_2",
			"primitives":[
				{
					"attributes":{
						"POSITION":15,
						"NORMAL":16,
						"TEXCOORD_0":17
					},
					"indices":18,
					"material":2
				}
			]
		},
		{
			"name":"Object_3",
			"primitives":[
				{
					"attributes":{
						"POSITION":19,
						"NORMAL":20,
						"TEXCOORD_0":21
					},
					"indices":22,
					"material":3
				}
			]
		},
		{
			"name":"Object_4",
			"primitives":[
				{
					"attributes":{
						"POSITION":23,
						"NORMAL":24,
						"TEXCOORD_0":25
					},
					"indices":26,
					"material":3
				}
			]
		},
		{
			"name":"Object_5",
			"primitives":[
				{
					"attributes":{
						"POSITION":27,
						"NORMAL":28,
						"TEXCOORD_0":29
					},
					"indices":30,
					"material":4
				}
			]
		},
		{
			"name":"Object_6",
			"primitives":[
				{
					"attributes":{
						"POSITION":31,
						"NORMAL":32
					},
					"indices":33,
					"material":5
				}
			]
		},
		{
			"name":"Object_7",
			"primitives":[
				{
					"attributes":{
						"POSITION":34,
						"NORMAL":35,
						"TEXCOORD_0":36
					},
					"indices":37,
					"material":5
				}
			]
		}
	],
	"textures":[
		{
			"sampler":0,
			"source":0
		}
	],
	"images":[
		{
			"mimeType":"image/png",
			"name":"tank_camo_baseColor",
			"uri":"tank_camo_baseColor.png"
		}
	],
	"accessors":[
		{
			"bufferView":0,
			"componentType":5126,
			"count":24256,
			"max":[
				0.8454800248146057,
				0.4998539984226227,
				0.6043260097503662
			],
			"min":[
				-0.8713899850845337,
				0.30069398880004883,
				-0.00432599987834692
			],
			"type":"VEC3"
		},
		{
			"bufferView":1,
			"componentType":5126,
			"count":24256,
			"type":"VEC3"
		},
		{
			"bufferView":2,
			"componentType":5126,
			"count":24256,
			"type":"VEC2"
		},
		{
			"bufferView":3,
			"componentType":5123,
			"count":63900,
			"type":"SCALAR"
		},
		{
			"bufferView":4,
			"componentType":5126,
			"count":24540,
			"max":[
				0.8454800248146057,
				-0.3000839948654175,
				0.6043260097503662
			],
			"min":[
				-0.8713899850845337,
				-0.49924400448799133,
				-0.00432599987834692
			],
			"type":"VEC3"
		},
		{
			"bufferView":5,
			"componentType":5126,
			"count":24540,
			"type":"VEC3"
		},
		{
			"bufferView":6,
			"componentType":5126,
			"count":24540,
			"type":"VEC2"
		},
		{
			"bufferView":7,
			"componentType":5123,
			"count":63900,
			"type":"SCALAR"
		},
		{
			"bufferView":8,
			"componentType":5126,
			"count":410,
			"max":[
				0.8377810120582581,
				0.43346700072288513,
				0.6043260097503662
			],
			"min":[
				-0.8713899850845337,
				-0.4328570067882538,
				-0.00432599987834692
			],
			"type":"VEC3"
		},
		{
			"bufferView":9,
			"componentType":5126,
			"count":410,
			"type":"VEC3"
		},
		{
			"bufferView":10,
			"componentType":5126,
			"count":410,
			"type":"VEC2"
		},
		{
			"bufferView":11,
			"componentType":5123,
			"count":600,
			"type":"SCALAR"
		},
		{
			"bufferView":12,
			"componentType":5126,
			"count":128,
			"max":[
				0.21728600561618805,
				0.2308560013771057,
				0.684827983379364
			],
			"min":[
				-0.2247370034456253,
				-0.21116699278354645,
				0.6001039743423462
			],
			"type":"VEC3"
		},
		{
			"bufferView":13,
			"componentType":5126,
			"count":128,
			"type":"VEC3"
		},
		{
			"bufferView":14,
			"componentType":5123,
			"count":756,
			"type":"SCALAR"
		},
		{
			"bufferView":15,
			"componentType":5126,
			"count":5322,
			"max":[
				0.8224959969520569,
				0.5418519973754883,
				1.1216939687728882
			],
			"min":[
				-1.0057430267333984,
				-0.5374500155448914,
				0.10001499950885773
			],
			"type":"VEC3"
		},
		{
			"bufferView":16,
			"componentType":5126,
			"count":5322,
			"type":"VEC3"
		},
		{
			"bufferView":17,
			"componentType":5126,
			"count":5322,
			"type":"VEC2"
		},
		{
			"bufferView":18,
			"componentType":5123,
			"count":15138,
			"type":"SCALAR"
		},
		{
			"bufferView":19,
			"componentType":5126,
			"count":9658,
			"max":[
				0.6451900005340576,
				0.5419520139694214,
				1.367493987083435
			],
			"min":[
				-0.6891440153121948,
				-0.5357080101966858,
				0.32131099700927734
			],
			"type":"VEC3"
		},
		{
			"bufferView":20,
			"componentType":5126,
			"count":9658,
			"type":"VEC3"
		},
		{
			"bufferView":21,
			"componentType":5126,
			"count":9658,
			"type":"VEC2"
		},
		{
			"bufferView":22,
			"componentType":5123,
			"count":39792,
			"type":"SCALAR"
		},
		{
			"bufferView":23,
			"componentType":5126,
			"count":4784,
			"max":[
				0.8215789794921875,
				0.2813819944858551,
				0.8619920015335083
			],
			"min":[
				-0.9349049925804138,
				-0.2818720042705536,
				0.08060900121927261
			],
			"type":"VEC3"
		},
		{
			"bufferView":24,
			"componentType":5126,
			"count":4784,
			"type":"VEC3"
		},
		{
			"bufferView":25,
			"componentType":5126,
			"count":4784,
			"type":"VEC2"
		},
		{
			"bufferView":26,
			"componentType":5123,
			"count":21762,
			"type":"SCALAR"
		},
		{
			"bufferView":27,
			"componentType":5126,
			"count":2721,
			"max":[
				1.0159599781036377,
				0.18715199828147888,
				0.8869760036468506
			],
			"min":[
				0.2532790005207062,
				-0.07293300330638885,
				0.41552799940109253
			],
			"type":"VEC3"
		},
		{
			"bufferView":28,
			"componentType":5126,
			"count":2721,
			"type":"VEC3"
		},
		{
			"bufferView":29,
			"componentType":5126,
			"count":2721,
			"type":"VEC2"
		},
		{
			"bufferView":30,
			"componentType":5123,
			"count":8448,
			"type":"SCALAR"
		},
		{
			"bufferView":31,
			"componentType":5126,
			"count":1724,
			"max":[
				0.6102010011672974,
				0.4038569927215576,
				0.5323650240898132
			],
			"min":[
				-1.010187029838562,
				-0.13385899364948273,
				0.11924400180578232
			],
			"type":"VEC3"
		},
		{
			"bufferView":32,
			"componentType":5126,
			"count":1724,
			"type":"VEC3"
		},
		{
			"bufferView":33,
			"componentType":5123,
			"count":8388,
			"type":"SCALAR"
		},
		{
			"bufferView":34,
			"componentType":5126,
			"count":7668,
			"max":[
				0.8007630109786987,
				0.4380219876766205,
				0.5605509877204895
			],
			"min":[
				-0.8205199837684631,
				-0.4368549883365631,
				0.03829199820756912
			],
			"type":"VEC3"
		},
		{
			"bufferView":35,
			"componentType":5126,
			"count":7668,
			"type":"VEC3"
		},
		{
			"bufferView":36,
			"componentType":5126,
			"count":7668,
			"type":"VEC2"
		},
		{
			"bufferView":37,
			"componentType":5123,
			"count":29952,
			"type":"SCALAR"
		}
	],
	"bufferViews":[
		{
			"buffer":0,
			"byteLength":291072,
			"byteOffset":0,
			"target":34962
		},
		{
			"buffer":0,
			"byteLength":291072,
			"byteOffset":291072,
			"target":34962
		},
		{
			"buffer":0,
			"byteLength":194048,
			"byteOffset":582144,
			"target":34962
		},
		{
			"buffer":0,
			"byteLength":127800,
			"byteOffset":776192,
			"target":34963
		},
		{
			"buffer":0,
			"byteLength":294480,
			"byteOffset":903992,
			"target":34962
		},
		{
			"buffer":0,
			"byteLength":294480,
			"byteOffset":1198472,
			"target":34962
		},
		{
			"buffer":0,
			"byteLength":196320,
			"byteOffset":1492952,
			"target":34962
		},
		{
			"buffer":0,
			"byteLength":127800,
			"byteOffset":1689272,
			"target":34963
		},
		{
			"buffer":0,
			"byteLength":4920,
			"byteOffset":1817072,
			"target":34962
		},
		{
			"buffer":0,
			"byteLength":4920,
			"byteOffset":1821992,
			"target":34962
		},
		{
			"buffer":0,
			"byteLength":3280,
			"byteOffset":1826912,
			"target":34962
		},
		{
			"buffer":0,
			"byteLength":1200,
			"byteOffset":1830192,
			"target":34963
		},
		{
			"buffer":0,
			"byteLength":1536,
			"byteOffset":1831392,
			"target":34962
		},
		{
			"buffer":0,
			"byteLength":1536,
			"byteOffset":1832928,
			"target":34962
		},
		{
			"buffer":0,
			"byteLength":1512,
			"byteOffset":1834464,
			"target":34963
		},
		{
			"buffer":0,
			"byteLength":63864,
			"byteOffset":1835976,
			"target":34962
		},
		{
			"buffer":0,
			"byteLength":63864,
			"byteOffset":1899840,
			"target":34962
		},
		{
			"buffer":0,
			"byteLength":42576,
			"byteOffset":1963704,
			"target":34962
		},
		{
			"buffer":0,
			"byteLength":30276,
			"byteOffset":2006280,
			"target":34963
		},
		{
			"buffer":0,
			"byteLength":115896,
			"byteOffset":2036556,
			"target":34962
		},
		{
			"buffer":0,
			"byteLength":115896,
			"byteOffset":2152452,
			"target":34962
		},
		{
			"buffer":0,
			"byteLength":77264,
			"byteOffset":2268348,
			"target":34962
		},
		{
			"buffer":0,
			"byteLength":79584,
			"byteOffset":2345612,
			"target":34963
		},
		{
			"buffer":0,
			"byteLength":57408,
			"byteOffset":2425196,
			"target":34962
		},
		{
			"buffer":0,
			"byteLength":57408,
			"byteOffset":2482604,
			"target":34962
		},
		{
			"buffer":0,
			"byteLength":38272,
			"byteOffset":2540012,
			"target":34962
		},
		{
			"buffer":0,
			"byteLength":43524,
			"byteOffset":2578284,
			"target":34963
		},
		{
			"buffer":0,
			"byteLength":32652,
			"byteOffset":2621808,
			"target":34962
		},
		{
			"buffer":0,
			"byteLength":32652,
			"byteOffset":2654460,
			"target":34962
		},
		{
			"buffer":0,
			"byteLength":21768,
			"byteOffset":2687112,
			"target":34962
		},
		{
			"buffer":0,
			"byteLength":16896,
			"byteOffset":2708880,
			"target":34963
		},
		{
			"buffer":0,
			"byteLength":20688,
			"byteOffset":2725776,
			"target":34962
		},
		{
			"buffer":0,
			"byteLength":20688,
			"byteOffset":2746464,
			"target":34962
		},
		{
			"buffer":0,
			"byteLength":16776,
			"byteOffset":2767152,
			"target":34963
		},
		{
			"buffer":0,
			"byteLength":92016,
			"byteOffset":2783928,
			"target":34962
		},
		{
			"buffer":0,
			"byteLength":92016,
			"byteOffset":2875944,
			"target":34962
		},
		{
			"buffer":0,
			"byteLength":61344,
			"byteOffset":2967960,
			"target":34962
		},
		{
			"buffer":0,
			"byteLength":59904,
			"byteOffset":3029304,
			"target":34963
		}
	],
	"samplers":[
		{
			"magFilter":9729,
			"minFilter":9987
		}
	],
	"buffers":[
		{
			"byteLength":3089208,
			"uri":"tankv003.bin"
		}
	]
}
