{
	"asset":{
		"generator":"Khronos glTF Blender I/O v4.3.47",
		"version":"2.0"
	},
	"extensionsUsed":[
		"KHR_materials_specular"
	],
	"scene":0,
	"scenes":[
		{
			"name":"Scene",
			"nodes":[
				0
			]
		}
	],
	"nodes":[
		{
			"mesh":0,
			"name":"moss rock 13",
			"rotation":[
				0.7071068286895752,
				0,
				0,
				0.7071068286895752
			]
		}
	],
	"materials":[
		{
			"doubleSided":true,
			"extensions":{
				"KHR_materials_specular":{
					"specularFactor":0
				}
			},
			"name":"moss_rock_13",
			"pbrMetallicRoughness":{
				"baseColorTexture":{
					"index":0
				},
				"metallicFactor":0,
				"metallicRoughnessTexture":{
					"index":1
				}
			}
		}
	],
	"meshes":[
		{
			"name":"moss rock 13",
			"primitives":[
				{
					"attributes":{
						"POSITION":0,
						"NORMAL":1,
						"TEXCOORD_0":2
					},
					"indices":3,
					"material":0
				}
			]
		}
	],
	"textures":[
		{
			"sampler":0,
			"source":0
		},
		{
			"sampler":0,
			"source":1
		}
	],
	"images":[
		{
			"mimeType":"image/jpeg",
			"name":"moss rock 13 (4096)",
			"uri":"moss%20rock%2013%204096.jpg"
		},
		{
			"mimeType":"image/png",
			"name":"moss rock 13_roughness (4096)",
			"uri":"moss%20rock%2013_roughness%204096.png"
		}
	],
	"accessors":[
		{
			"bufferView":0,
			"componentType":5126,
			"count":4317,
			"max":[
				1.0719770193099976,
				-4.914301872253418,
				0.5402420163154602
			],
			"min":[
				-1.2370140552520752,
				-6.700857162475586,
				-0.4856800138950348
			],
			"type":"VEC3"
		},
		{
			"bufferView":1,
			"componentType":5126,
			"count":4317,
			"type":"VEC3"
		},
		{
			"bufferView":2,
			"componentType":5126,
			"count":4317,
			"type":"VEC2"
		},
		{
			"bufferView":3,
			"componentType":5123,
			"count":23997,
			"type":"SCALAR"
		}
	],
	"bufferViews":[
		{
			"buffer":0,
			"byteLength":51804,
			"byteOffset":0,
			"target":34962
		},
		{
			"buffer":0,
			"byteLength":51804,
			"byteOffset":51804,
			"target":34962
		},
		{
			"buffer":0,
			"byteLength":34536,
			"byteOffset":103608,
			"target":34962
		},
		{
			"buffer":0,
			"byteLength":47994,
			"byteOffset":138144,
			"target":34963
		}
	],
	"samplers":[
		{
			"magFilter":9729,
			"minFilter":9987
		}
	],
	"buffers":[
		{
			"byteLength":186140,
			"uri":"rock13.bin"
		}
	]
}
