{
	"asset":{
		"generator":"Khronos glTF Blender I/O v4.3.47",
		"version":"2.0"
	},
	"extensionsUsed":[
		"KHR_materials_specular"
	],
	"scene":0,
	"scenes":[
		{
			"name":"Scene",
			"nodes":[
				0
			]
		}
	],
	"nodes":[
		{
			"mesh":0,
			"name":"moss rock 09",
			"rotation":[
				0.7071068286895752,
				0,
				0,
				0.7071068286895752
			]
		}
	],
	"materials":[
		{
			"doubleSided":true,
			"extensions":{
				"KHR_materials_specular":{
					"specularFactor":0
				}
			},
			"name":"low",
			"pbrMetallicRoughness":{
				"baseColorTexture":{
					"index":0
				},
				"metallicFactor":0,
				"metallicRoughnessTexture":{
					"index":1
				}
			}
		}
	],
	"meshes":[
		{
			"name":"moss rock 09",
			"primitives":[
				{
					"attributes":{
						"POSITION":0,
						"NORMAL":1,
						"TEXCOORD_0":2
					},
					"indices":3,
					"material":0
				}
			]
		}
	],
	"textures":[
		{
			"sampler":0,
			"source":0
		},
		{
			"sampler":0,
			"source":1
		}
	],
	"images":[
		{
			"mimeType":"image/jpeg",
			"name":"moss rock 09 Color (4096)",
			"uri":"moss%20rock%2009%20Color%204096.jpg"
		},
		{
			"mimeType":"image/png",
			"name":"moss rock 09_roughness (4096)",
			"uri":"moss%20rock%2009_roughness%204096.png"
		}
	],
	"accessors":[
		{
			"bufferView":0,
			"componentType":5126,
			"count":4154,
			"max":[
				1.1786400079727173,
				-6.098680019378662,
				0.47895699739456177
			],
			"min":[
				-1.4378089904785156,
				-8.244512557983398,
				-0.6643369793891907
			],
			"type":"VEC3"
		},
		{
			"bufferView":1,
			"componentType":5126,
			"count":4154,
			"type":"VEC3"
		},
		{
			"bufferView":2,
			"componentType":5126,
			"count":4154,
			"type":"VEC2"
		},
		{
			"bufferView":3,
			"componentType":5123,
			"count":24000,
			"type":"SCALAR"
		}
	],
	"bufferViews":[
		{
			"buffer":0,
			"byteLength":49848,
			"byteOffset":0,
			"target":34962
		},
		{
			"buffer":0,
			"byteLength":49848,
			"byteOffset":49848,
			"target":34962
		},
		{
			"buffer":0,
			"byteLength":33232,
			"byteOffset":99696,
			"target":34962
		},
		{
			"buffer":0,
			"byteLength":48000,
			"byteOffset":132928,
			"target":34963
		}
	],
	"samplers":[
		{
			"magFilter":9729,
			"minFilter":9987
		}
	],
	"buffers":[
		{
			"byteLength":180928,
			"uri":"rock09.bin"
		}
	]
}
