{
	"asset":{
		"generator":"Khronos glTF Blender I/O v4.3.47",
		"version":"2.0"
	},
	"extensionsUsed":[
		"KHR_materials_specular"
	],
	"scene":0,
	"scenes":[
		{
			"name":"Scene",
			"nodes":[
				0,
				1,
				2,
				3,
				4
			]
		}
	],
	"nodes":[
		{
			"mesh":0,
			"name":"tank_body_mesh",
			"rotation":[
				0.7071068286895752,
				0,
				0,
				0.7071068286895752
			],
			"scale":[
				0.263010710477829,
				0.263010710477829,
				0.263010710477829
			]
		},
		{
			"mesh":1,
			"name":"tank_tower_mesh",
			"rotation":[
				0.7071068286895752,
				0,
				0,
				0.7071068286895752
			],
			"scale":[
				0.263010710477829,
				0.263010710477829,
				0.263010710477829
			]
		},
		{
			"mesh":2,
			"name":"tank_border_mesh",
			"rotation":[
				0.7071068286895752,
				0,
				0,
				0.7071068286895752
			],
			"scale":[
				0.263010710477829,
				0.263010710477829,
				0.263010710477829
			]
		},
		{
			"mesh":3,
			"name":"tank_track_mesh",
			"rotation":[
				0.7071068286895752,
				0,
				0,
				0.7071068286895752
			],
			"scale":[
				0.263010710477829,
				0.263010710477829,
				0.263010710477829
			]
		},
		{
			"mesh":4,
			"name":"tank_wheels_mesh",
			"rotation":[
				0.7071068286895752,
				0,
				0,
				0.7071068286895752
			],
			"scale":[
				0.263010710477829,
				0.263010710477829,
				0.263010710477829
			]
		}
	],
	"materials":[
		{
			"doubleSided":true,
			"extensions":{
				"KHR_materials_specular":{
					"specularTexture":{
						"index":0
					}
				}
			},
			"name":"tank_body_mat",
			"pbrMetallicRoughness":{
				"baseColorTexture":{
					"index":1
				},
				"metallicFactor":0.5,
				"roughnessFactor":0.7487671971321106
			}
		},
		{
			"doubleSided":true,
			"extensions":{
				"KHR_materials_specular":{
					"specularTexture":{
						"index":2
					}
				}
			},
			"name":"tank_tower_mat",
			"pbrMetallicRoughness":{
				"baseColorTexture":{
					"index":3
				},
				"metallicFactor":0.5,
				"roughnessFactor":0.7487671971321106
			}
		},
		{
			"doubleSided":true,
			"extensions":{
				"KHR_materials_specular":{
					"specularTexture":{
						"index":4
					}
				}
			},
			"name":"tank_border_mat",
			"pbrMetallicRoughness":{
				"baseColorTexture":{
					"index":5
				},
				"metallicFactor":0.5,
				"roughnessFactor":0.7487671971321106
			}
		},
		{
			"doubleSided":true,
			"extensions":{
				"KHR_materials_specular":{
					"specularTexture":{
						"index":6
					}
				}
			},
			"name":"track_mat",
			"pbrMetallicRoughness":{
				"baseColorTexture":{
					"index":7
				},
				"metallicFactor":0.5,
				"roughnessFactor":0.7487671971321106
			}
		},
		{
			"doubleSided":true,
			"extensions":{
				"KHR_materials_specular":{
					"specularTexture":{
						"index":8
					}
				}
			},
			"name":"wheels_mat",
			"pbrMetallicRoughness":{
				"baseColorTexture":{
					"index":9
				},
				"metallicFactor":0.5,
				"roughnessFactor":0.7487671971321106
			}
		}
	],
	"meshes":[
		{
			"name":"Mesh",
			"primitives":[
				{
					"attributes":{
						"POSITION":0,
						"NORMAL":1,
						"TEXCOORD_0":2
					},
					"indices":3,
					"material":0
				}
			]
		},
		{
			"name":"Mesh.001",
			"primitives":[
				{
					"attributes":{
						"POSITION":4,
						"NORMAL":5,
						"TEXCOORD_0":6
					},
					"indices":7,
					"material":1
				}
			]
		},
		{
			"name":"Mesh.002",
			"primitives":[
				{
					"attributes":{
						"POSITION":8,
						"NORMAL":9,
						"TEXCOORD_0":10
					},
					"indices":11,
					"material":2
				}
			]
		},
		{
			"name":"Mesh.003",
			"primitives":[
				{
					"attributes":{
						"POSITION":12,
						"NORMAL":13,
						"TEXCOORD_0":14
					},
					"indices":15,
					"material":3
				}
			]
		},
		{
			"name":"Mesh.004",
			"primitives":[
				{
					"attributes":{
						"POSITION":16,
						"NORMAL":17,
						"TEXCOORD_0":18
					},
					"indices":19,
					"material":4
				}
			]
		}
	],
	"textures":[
		{
			"sampler":0,
			"source":0
		},
		{
			"sampler":0,
			"source":1
		},
		{
			"sampler":0,
			"source":0
		},
		{
			"sampler":0,
			"source":1
		},
		{
			"sampler":0,
			"source":0
		},
		{
			"sampler":0,
			"source":1
		},
		{
			"sampler":0,
			"source":0
		},
		{
			"sampler":0,
			"source":1
		},
		{
			"sampler":0,
			"source":0
		},
		{
			"sampler":0,
			"source":1
		}
	],
	"images":[
		{
			"mimeType":"image/png",
			"name":"file24",
			"uri":"file24.png"
		},
		{
			"mimeType":"image/png",
			"name":"file22",
			"uri":"file22.png"
		}
	],
	"accessors":[
		{
			"bufferView":0,
			"componentType":5126,
			"count":48,
			"max":[
				1.5436629056930542,
				2.6159846782684326,
				0.8042145371437073
			],
			"min":[
				-1.5436629056930542,
				-2.7863521575927734,
				-0.8042145371437073
			],
			"type":"VEC3"
		},
		{
			"bufferView":1,
			"componentType":5126,
			"count":48,
			"type":"VEC3"
		},
		{
			"bufferView":2,
			"componentType":5126,
			"count":48,
			"type":"VEC2"
		},
		{
			"bufferView":3,
			"componentType":5123,
			"count":84,
			"type":"SCALAR"
		},
		{
			"bufferView":4,
			"componentType":5126,
			"count":419,
			"max":[
				1.4541281461715698,
				4.217193126678467,
				-0.7950920462608337
			],
			"min":[
				-1.4541281461715698,
				-1.9228578805923462,
				-2.203965902328491
			],
			"type":"VEC3"
		},
		{
			"bufferView":5,
			"componentType":5126,
			"count":419,
			"type":"VEC3"
		},
		{
			"bufferView":6,
			"componentType":5126,
			"count":419,
			"type":"VEC2"
		},
		{
			"bufferView":7,
			"componentType":5123,
			"count":900,
			"type":"SCALAR"
		},
		{
			"bufferView":8,
			"componentType":5126,
			"count":96,
			"max":[
				2.377804756164551,
				2.6159846782684326,
				0.08857613801956177
			],
			"min":[
				-2.377804756164551,
				-2.6159846782684326,
				-0.5604932904243469
			],
			"type":"VEC3"
		},
		{
			"bufferView":9,
			"componentType":5126,
			"count":96,
			"type":"VEC3"
		},
		{
			"bufferView":10,
			"componentType":5126,
			"count":96,
			"type":"VEC2"
		},
		{
			"bufferView":11,
			"componentType":5123,
			"count":168,
			"type":"SCALAR"
		},
		{
			"bufferView":12,
			"componentType":5126,
			"count":336,
			"max":[
				2.293257236480713,
				2.2580957412719727,
				1.1066863536834717
			],
			"min":[
				-2.293257236480713,
				-2.6022157669067383,
				-0.28307852149009705
			],
			"type":"VEC3"
		},
		{
			"bufferView":13,
			"componentType":5126,
			"count":336,
			"type":"VEC3"
		},
		{
			"bufferView":14,
			"componentType":5126,
			"count":336,
			"type":"VEC2"
		},
		{
			"bufferView":15,
			"componentType":5123,
			"count":672,
			"type":"SCALAR"
		},
		{
			"bufferView":16,
			"componentType":5126,
			"count":1744,
			"max":[
				2.293257474899292,
				2.139291286468506,
				1.0217595100402832
			],
			"min":[
				-2.293257474899292,
				-2.496077537536621,
				-0.19488832354545593
			],
			"type":"VEC3"
		},
		{
			"bufferView":17,
			"componentType":5126,
			"count":1744,
			"type":"VEC3"
		},
		{
			"bufferView":18,
			"componentType":5126,
			"count":1744,
			"type":"VEC2"
		},
		{
			"bufferView":19,
			"componentType":5123,
			"count":3456,
			"type":"SCALAR"
		}
	],
	"bufferViews":[
		{
			"buffer":0,
			"byteLength":576,
			"byteOffset":0,
			"target":34962
		},
		{
			"buffer":0,
			"byteLength":576,
			"byteOffset":576,
			"target":34962
		},
		{
			"buffer":0,
			"byteLength":384,
			"byteOffset":1152,
			"target":34962
		},
		{
			"buffer":0,
			"byteLength":168,
			"byteOffset":1536,
			"target":34963
		},
		{
			"buffer":0,
			"byteLength":5028,
			"byteOffset":1704,
			"target":34962
		},
		{
			"buffer":0,
			"byteLength":5028,
			"byteOffset":6732,
			"target":34962
		},
		{
			"buffer":0,
			"byteLength":3352,
			"byteOffset":11760,
			"target":34962
		},
		{
			"buffer":0,
			"byteLength":1800,
			"byteOffset":15112,
			"target":34963
		},
		{
			"buffer":0,
			"byteLength":1152,
			"byteOffset":16912,
			"target":34962
		},
		{
			"buffer":0,
			"byteLength":1152,
			"byteOffset":18064,
			"target":34962
		},
		{
			"buffer":0,
			"byteLength":768,
			"byteOffset":19216,
			"target":34962
		},
		{
			"buffer":0,
			"byteLength":336,
			"byteOffset":19984,
			"target":34963
		},
		{
			"buffer":0,
			"byteLength":4032,
			"byteOffset":20320,
			"target":34962
		},
		{
			"buffer":0,
			"byteLength":4032,
			"byteOffset":24352,
			"target":34962
		},
		{
			"buffer":0,
			"byteLength":2688,
			"byteOffset":28384,
			"target":34962
		},
		{
			"buffer":0,
			"byteLength":1344,
			"byteOffset":31072,
			"target":34963
		},
		{
			"buffer":0,
			"byteLength":20928,
			"byteOffset":32416,
			"target":34962
		},
		{
			"buffer":0,
			"byteLength":20928,
			"byteOffset":53344,
			"target":34962
		},
		{
			"buffer":0,
			"byteLength":13952,
			"byteOffset":74272,
			"target":34962
		},
		{
			"buffer":0,
			"byteLength":6912,
			"byteOffset":88224,
			"target":34963
		}
	],
	"samplers":[
		{
			"magFilter":9729,
			"minFilter":9987
		}
	],
	"buffers":[
		{
			"byteLength":95136,
			"uri":"tankv001.bin"
		}
	]
}
