{
	"asset":{
		"generator":"Khronos glTF Blender I/O v4.3.47",
		"version":"2.0"
	},
	"extensionsUsed":[
		"KHR_materials_transmission",
		"KHR_materials_specular"
	],
	"scene":0,
	"scenes":[
		{
			"name":"Scene",
			"nodes":[
				0
			]
		}
	],
	"nodes":[
		{
			"mesh":0,
			"name":"14078_WWII_Tank_Soviet_Union_T-70_v1_l2",
			"rotation":[
				0,
				0.7071068286895752,
				0,
				0.7071068286895752
			],
			"translation":[
				0,
				-0.23000003397464752,
				0
			]
		}
	],
	"materials":[
		{
			"doubleSided":true,
			"extensions":{
				"KHR_materials_transmission":{
					"transmissionFactor":1
				},
				"KHR_materials_specular":{
					"specularFactor":0
				}
			},
			"name":"02___14078_WWII_Tank_Soviet_Union_T_70_hull",
			"pbrMetallicRoughness":{
				"baseColorTexture":{
					"index":0
				},
				"metallicFactor":0,
				"roughnessFactor":0.8129171133041382
			}
		},
		{
			"doubleSided":true,
			"extensions":{
				"KHR_materials_transmission":{
					"transmissionFactor":1
				},
				"KHR_materials_specular":{
					"specularFactor":0
				}
			},
			"name":"03___14078_WWII_Tank_Soviet_Union_T_70_tracks",
			"pbrMetallicRoughness":{
				"baseColorTexture":{
					"index":1
				},
				"metallicFactor":0,
				"roughnessFactor":0.8129171133041382
			}
		},
		{
			"doubleSided":true,
			"extensions":{
				"KHR_materials_transmission":{
					"transmissionFactor":1
				},
				"KHR_materials_specular":{
					"specularFactor":0
				}
			},
			"name":"01___14078_WWII_Tank_Soviet_Union_T_70_turret",
			"pbrMetallicRoughness":{
				"baseColorTexture":{
					"index":2
				},
				"metallicFactor":0,
				"roughnessFactor":0.8129171133041382
			}
		}
	],
	"meshes":[
		{
			"name":"14078_WWII_Tank_Soviet_Union_T-70_v1_l2",
			"primitives":[
				{
					"attributes":{
						"POSITION":0,
						"NORMAL":1,
						"TEXCOORD_0":2
					},
					"indices":3,
					"material":0
				},
				{
					"attributes":{
						"POSITION":4,
						"NORMAL":5,
						"TEXCOORD_0":6
					},
					"indices":7,
					"material":1
				},
				{
					"attributes":{
						"POSITION":8,
						"NORMAL":9,
						"TEXCOORD_0":10
					},
					"indices":11,
					"material":2
				}
			]
		}
	],
	"textures":[
		{
			"sampler":0,
			"source":0
		},
		{
			"sampler":0,
			"source":1
		},
		{
			"sampler":0,
			"source":2
		}
	],
	"images":[
		{
			"mimeType":"image/jpeg",
			"name":"14078_WWII_Tank_Soviet_Union_T-70_hull_diff",
			"uri":"14078_WWII_Tank_Soviet_Union_T-70_hull_diff.jpg"
		},
		{
			"mimeType":"image/jpeg",
			"name":"14078_WWII_Tank_Soviet_Union_T-70_tracks_diff",
			"uri":"14078_WWII_Tank_Soviet_Union_T-70_tracks_diff.jpg"
		},
		{
			"mimeType":"image/jpeg",
			"name":"14078_WWII_Tank_Soviet_Union_T-70_turret_diff",
			"uri":"14078_WWII_Tank_Soviet_Union_T-70_turret_diff.jpg"
		}
	],
	"accessors":[
		{
			"bufferView":0,
			"componentType":5126,
			"count":16521,
			"max":[
				2.1596999168395996,
				1.829300045967102,
				1.221500039100647
			],
			"min":[
				-2.2599000930786133,
				0.5569999814033508,
				-1.221500039100647
			],
			"type":"VEC3"
		},
		{
			"bufferView":1,
			"componentType":5126,
			"count":16521,
			"type":"VEC3"
		},
		{
			"bufferView":2,
			"componentType":5126,
			"count":16521,
			"type":"VEC2"
		},
		{
			"bufferView":3,
			"componentType":5123,
			"count":88248,
			"type":"SCALAR"
		},
		{
			"bufferView":4,
			"componentType":5126,
			"count":25616,
			"max":[
				2.05679988861084,
				1.2430000305175781,
				1.1723999977111816
			],
			"min":[
				-2.1196999549865723,
				0.23149999976158142,
				-1.1723999977111816
			],
			"type":"VEC3"
		},
		{
			"bufferView":5,
			"componentType":5126,
			"count":25616,
			"type":"VEC3"
		},
		{
			"bufferView":6,
			"componentType":5126,
			"count":25616,
			"type":"VEC2"
		},
		{
			"bufferView":7,
			"componentType":5123,
			"count":141984,
			"type":"SCALAR"
		},
		{
			"bufferView":8,
			"componentType":5126,
			"count":4672,
			"max":[
				0.9006999731063843,
				2.3480000495910645,
				1.0211000442504883
			],
			"min":[
				-1.7299000024795532,
				1.6526999473571777,
				-0.36250001192092896
			],
			"type":"VEC3"
		},
		{
			"bufferView":9,
			"componentType":5126,
			"count":4672,
			"type":"VEC3"
		},
		{
			"bufferView":10,
			"componentType":5126,
			"count":4672,
			"type":"VEC2"
		},
		{
			"bufferView":11,
			"componentType":5123,
			"count":25140,
			"type":"SCALAR"
		}
	],
	"bufferViews":[
		{
			"buffer":0,
			"byteLength":198252,
			"byteOffset":0,
			"target":34962
		},
		{
			"buffer":0,
			"byteLength":198252,
			"byteOffset":198252,
			"target":34962
		},
		{
			"buffer":0,
			"byteLength":132168,
			"byteOffset":396504,
			"target":34962
		},
		{
			"buffer":0,
			"byteLength":176496,
			"byteOffset":528672,
			"target":34963
		},
		{
			"buffer":0,
			"byteLength":307392,
			"byteOffset":705168,
			"target":34962
		},
		{
			"buffer":0,
			"byteLength":307392,
			"byteOffset":1012560,
			"target":34962
		},
		{
			"buffer":0,
			"byteLength":204928,
			"byteOffset":1319952,
			"target":34962
		},
		{
			"buffer":0,
			"byteLength":283968,
			"byteOffset":1524880,
			"target":34963
		},
		{
			"buffer":0,
			"byteLength":56064,
			"byteOffset":1808848,
			"target":34962
		},
		{
			"buffer":0,
			"byteLength":56064,
			"byteOffset":1864912,
			"target":34962
		},
		{
			"buffer":0,
			"byteLength":37376,
			"byteOffset":1920976,
			"target":34962
		},
		{
			"buffer":0,
			"byteLength":50280,
			"byteOffset":1958352,
			"target":34963
		}
	],
	"samplers":[
		{
			"magFilter":9729,
			"minFilter":9987
		}
	],
	"buffers":[
		{
			"byteLength":2008632,
			"uri":"tankv005.bin"
		}
	]
}
