{
	"asset":{
		"generator":"Khronos glTF Blender I/O v4.3.47",
		"version":"2.0"
	},
	"scene":0,
	"scenes":[
		{
			"name":"Scene",
			"nodes":[
				5
			]
		}
	],
	"nodes":[
		{
			"mesh":0,
			"name":"_2_TP23_Leaf_0"
		},
		{
			"mesh":1,
			"name":"_2_TP23_Trunk_0"
		},
		{
			"children":[
				0,
				1
			],
			"name":"_2"
		},
		{
			"children":[
				2
			],
			"name":"RootNode"
		},
		{
			"children":[
				3
			],
			"name":"SM_TP23_2.fbx",
			"rotation":[
				0.70710688829422,
				0,
				0,
				0.7071066498756409
			],
			"scale":[
				0.009999999776482582,
				0.010000000707805157,
				0.010000000707805157
			]
		},
		{
			"children":[
				4
			],
			"name":"Sketchfab_model",
			"rotation":[
				-0.70710688829422,
				0,
				0,
				0.7071066498756409
			]
		}
	],
	"materials":[
		{
			"alphaCutoff":0.4289606511592865,
			"alphaMode":"MASK",
			"doubleSided":true,
			"name":"TP23_Leaf",
			"pbrMetallicRoughness":{
				"baseColorTexture":{
					"index":0
				},
				"metallicFactor":0,
				"roughnessFactor":0.6000000238418579
			}
		},
		{
			"doubleSided":true,
			"name":"TP23_Trunk",
			"normalTexture":{
				"index":1
			},
			"pbrMetallicRoughness":{
				"baseColorTexture":{
					"index":2
				},
				"metallicFactor":0,
				"roughnessFactor":0.6000000238418579
			}
		}
	],
	"meshes":[
		{
			"name":"_2_TP23_Leaf_0",
			"primitives":[
				{
					"attributes":{
						"POSITION":0,
						"NORMAL":1,
						"TEXCOORD_0":2,
						"TEXCOORD_1":3
					},
					"indices":4,
					"material":0
				}
			]
		},
		{
			"name":"_2_TP23_Trunk_0",
			"primitives":[
				{
					"attributes":{
						"POSITION":5,
						"NORMAL":6,
						"TEXCOORD_0":7,
						"TEXCOORD_1":8
					},
					"indices":9,
					"material":1
				}
			]
		}
	],
	"textures":[
		{
			"sampler":0,
			"source":0
		},
		{
			"sampler":0,
			"source":1
		},
		{
			"sampler":0,
			"source":2
		}
	],
	"images":[
		{
			"mimeType":"image/png",
			"name":"TP23_Leaf_baseColor",
			"uri":"TP23_Leaf_baseColor.png"
		},
		{
			"mimeType":"image/png",
			"name":"TP23_Trunk_normal",
			"uri":"TP23_Trunk_normal.png"
		},
		{
			"mimeType":"image/png",
			"name":"TP23_Trunk_baseColor",
			"uri":"TP23_Trunk_baseColor.png"
		}
	],
	"accessors":[
		{
			"bufferView":0,
			"componentType":5126,
			"count":3072,
			"max":[
				1120.2847900390625,
				3361.388671875,
				1100.1072998046875
			],
			"min":[
				-1078.9085693359375,
				408.1110534667969,
				-1034.9417724609375
			],
			"type":"VEC3"
		},
		{
			"bufferView":1,
			"componentType":5126,
			"count":3072,
			"type":"VEC3"
		},
		{
			"bufferView":2,
			"componentType":5126,
			"count":3072,
			"type":"VEC2"
		},
		{
			"bufferView":3,
			"componentType":5126,
			"count":3072,
			"type":"VEC2"
		},
		{
			"bufferView":4,
			"componentType":5123,
			"count":3072,
			"type":"SCALAR"
		},
		{
			"bufferView":5,
			"componentType":5126,
			"count":8410,
			"max":[
				632.7633666992188,
				2990.068359375,
				595.8933715820312
			],
			"min":[
				-586.0076904296875,
				-0.09679999947547913,
				-521.55859375
			],
			"type":"VEC3"
		},
		{
			"bufferView":6,
			"componentType":5126,
			"count":8410,
			"type":"VEC3"
		},
		{
			"bufferView":7,
			"componentType":5126,
			"count":8410,
			"type":"VEC2"
		},
		{
			"bufferView":8,
			"componentType":5126,
			"count":8410,
			"type":"VEC2"
		},
		{
			"bufferView":9,
			"componentType":5123,
			"count":10884,
			"type":"SCALAR"
		}
	],
	"bufferViews":[
		{
			"buffer":0,
			"byteLength":36864,
			"byteOffset":0,
			"target":34962
		},
		{
			"buffer":0,
			"byteLength":36864,
			"byteOffset":36864,
			"target":34962
		},
		{
			"buffer":0,
			"byteLength":24576,
			"byteOffset":73728,
			"target":34962
		},
		{
			"buffer":0,
			"byteLength":24576,
			"byteOffset":98304,
			"target":34962
		},
		{
			"buffer":0,
			"byteLength":6144,
			"byteOffset":122880,
			"target":34963
		},
		{
			"buffer":0,
			"byteLength":100920,
			"byteOffset":129024,
			"target":34962
		},
		{
			"buffer":0,
			"byteLength":100920,
			"byteOffset":229944,
			"target":34962
		},
		{
			"buffer":0,
			"byteLength":67280,
			"byteOffset":330864,
			"target":34962
		},
		{
			"buffer":0,
			"byteLength":67280,
			"byteOffset":398144,
			"target":34962
		},
		{
			"buffer":0,
			"byteLength":21768,
			"byteOffset":465424,
			"target":34963
		}
	],
	"samplers":[
		{
			"magFilter":9729,
			"minFilter":9987
		}
	],
	"buffers":[
		{
			"byteLength":487192,
			"uri":"tree01.bin"
		}
	]
}
