{
	"asset":{
		"generator":"Khronos glTF Blender I/O v4.3.47",
		"version":"2.0"
	},
	"extensionsUsed":[
		"KHR_materials_transmission",
		"KHR_materials_specular"
	],
	"scene":0,
	"scenes":[
		{
			"name":"Scene",
			"nodes":[
				0
			]
		}
	],
	"nodes":[
		{
			"mesh":0,
			"name":"14079_WWII_Tank_UK_Cromwell_v1_L2",
			"rotation":[
				0,
				0.7071068286895752,
				0,
				0.7071068286895752
			],
			"translation":[
				0,
				-0.8899999260902405,
				0
			]
		}
	],
	"materials":[
		{
			"doubleSided":true,
			"extensions":{
				"KHR_materials_transmission":{
					"transmissionFactor":1
				},
				"KHR_materials_specular":{
					"specularFactor":0
				}
			},
			"name":"01___14079_WWII_Tank_UK_Cromwell",
			"pbrMetallicRoughness":{
				"baseColorTexture":{
					"index":0
				},
				"metallicFactor":0,
				"roughnessFactor":0.8129171133041382
			}
		},
		{
			"doubleSided":true,
			"extensions":{
				"KHR_materials_transmission":{
					"transmissionFactor":1
				},
				"KHR_materials_specular":{
					"specularFactor":0
				}
			},
			"name":"02___14079_WWII_Tank_UK_Cromwell_hull",
			"pbrMetallicRoughness":{
				"baseColorTexture":{
					"index":1
				},
				"metallicFactor":0,
				"roughnessFactor":0.8129171133041382
			}
		},
		{
			"doubleSided":true,
			"extensions":{
				"KHR_materials_transmission":{
					"transmissionFactor":1
				},
				"KHR_materials_specular":{
					"specularFactor":0
				}
			},
			"name":"03___14079_WWII_Tank_UK_Cromwell_tracks",
			"pbrMetallicRoughness":{
				"baseColorTexture":{
					"index":2
				},
				"metallicFactor":0,
				"roughnessFactor":0.8129171133041382
			}
		}
	],
	"meshes":[
		{
			"name":"14079_WWII_Tank_UK_Cromwell_v1_L2",
			"primitives":[
				{
					"attributes":{
						"POSITION":0,
						"NORMAL":1,
						"TEXCOORD_0":2
					},
					"indices":3,
					"material":0
				},
				{
					"attributes":{
						"POSITION":4,
						"NORMAL":5,
						"TEXCOORD_0":6
					},
					"indices":7,
					"material":1
				},
				{
					"attributes":{
						"POSITION":8,
						"NORMAL":9,
						"TEXCOORD_0":10
					},
					"indices":11,
					"material":2
				}
			]
		}
	],
	"textures":[
		{
			"sampler":0,
			"source":0
		},
		{
			"sampler":0,
			"source":1
		},
		{
			"sampler":0,
			"source":2
		}
	],
	"images":[
		{
			"mimeType":"image/jpeg",
			"name":"14079_WWII_Tank_UK_Cromwell_turret_diff",
			"uri":"14079_WWII_Tank_UK_Cromwell_turret_diff.jpg"
		},
		{
			"mimeType":"image/jpeg",
			"name":"14079_WWII_Tank_UK_Cromwell_hull_diff",
			"uri":"14079_WWII_Tank_UK_Cromwell_hull_diff.jpg"
		},
		{
			"mimeType":"image/jpeg",
			"name":"14079_WWII_Tank_UK_Cromwell_tracks_diff",
			"uri":"14079_WWII_Tank_UK_Cromwell_tracks_diff.jpg"
		}
	],
	"accessors":[
		{
			"bufferView":0,
			"componentType":5126,
			"count":13968,
			"max":[
				0.28600001335144043,
				2.0072999000549316,
				0.48919999599456787
			],
			"min":[
				-1.6094000339508057,
				1.5855000019073486,
				-0.48919999599456787
			],
			"type":"VEC3"
		},
		{
			"bufferView":1,
			"componentType":5126,
			"count":13968,
			"type":"VEC3"
		},
		{
			"bufferView":2,
			"componentType":5126,
			"count":13968,
			"type":"VEC2"
		},
		{
			"bufferView":3,
			"componentType":5123,
			"count":74232,
			"type":"SCALAR"
		},
		{
			"bufferView":4,
			"componentType":5126,
			"count":17559,
			"max":[
				1.5085999965667725,
				1.7424999475479126,
				0.7515000104904175
			],
			"min":[
				-1.5390000343322754,
				1.0699000358581543,
				-0.7515000104904175
			],
			"type":"VEC3"
		},
		{
			"bufferView":5,
			"componentType":5126,
			"count":17559,
			"type":"VEC3"
		},
		{
			"bufferView":6,
			"componentType":5126,
			"count":17559,
			"type":"VEC2"
		},
		{
			"bufferView":7,
			"componentType":5123,
			"count":95844,
			"type":"SCALAR"
		},
		{
			"bufferView":8,
			"componentType":5126,
			"count":19174,
			"max":[
				1.4021999835968018,
				1.3702000379562378,
				0.6958000063896179
			],
			"min":[
				-1.4874000549316406,
				0.8924000263214111,
				-0.6958000063896179
			],
			"type":"VEC3"
		},
		{
			"bufferView":9,
			"componentType":5126,
			"count":19174,
			"type":"VEC3"
		},
		{
			"bufferView":10,
			"componentType":5126,
			"count":19174,
			"type":"VEC2"
		},
		{
			"bufferView":11,
			"componentType":5123,
			"count":105408,
			"type":"SCALAR"
		}
	],
	"bufferViews":[
		{
			"buffer":0,
			"byteLength":167616,
			"byteOffset":0,
			"target":34962
		},
		{
			"buffer":0,
			"byteLength":167616,
			"byteOffset":167616,
			"target":34962
		},
		{
			"buffer":0,
			"byteLength":111744,
			"byteOffset":335232,
			"target":34962
		},
		{
			"buffer":0,
			"byteLength":148464,
			"byteOffset":446976,
			"target":34963
		},
		{
			"buffer":0,
			"byteLength":210708,
			"byteOffset":595440,
			"target":34962
		},
		{
			"buffer":0,
			"byteLength":210708,
			"byteOffset":806148,
			"target":34962
		},
		{
			"buffer":0,
			"byteLength":140472,
			"byteOffset":1016856,
			"target":34962
		},
		{
			"buffer":0,
			"byteLength":191688,
			"byteOffset":1157328,
			"target":34963
		},
		{
			"buffer":0,
			"byteLength":230088,
			"byteOffset":1349016,
			"target":34962
		},
		{
			"buffer":0,
			"byteLength":230088,
			"byteOffset":1579104,
			"target":34962
		},
		{
			"buffer":0,
			"byteLength":153392,
			"byteOffset":1809192,
			"target":34962
		},
		{
			"buffer":0,
			"byteLength":210816,
			"byteOffset":1962584,
			"target":34963
		}
	],
	"samplers":[
		{
			"magFilter":9729,
			"minFilter":9987
		}
	],
	"buffers":[
		{
			"byteLength":2173400,
			"uri":"tankv004.bin"
		}
	]
}
